<svg id="Layer_1" data-name="Layer 1" xmlns="http://www.w3.org/2000/svg" viewBox="0 0 585.9 331.77"><defs><style>.cls-1{fill:#fff;}</style></defs><title>linkapi-logo</title><path class="cls-1" d="M548.43,328c1.93,0,3.85.1,5.77.26a142,142,0,0,0-2,23.47h31.64A110.89,110.89,0,0,1,694.64,240.94c54.51,0,101.62,40.6,109.56,94.43l.75-.11.71,2.68A67.47,67.47,0,0,1,823,335.68a66.68,66.68,0,0,1,54.15,27.37l25.47-18.79a99.42,99.42,0,0,0-73.79-40.05c-19.81-55.61-73.42-94.91-134.22-94.91A142.6,142.6,0,0,0,563,297.41a98.84,98.84,0,0,0-113.48,97.81h31.65A67.33,67.33,0,0,1,548.43,328Z" transform="translate(-390.1 -209.3)"/><path class="cls-1" d="M939.7,366.63a36.31,36.31,0,0,0-31.62,18.53c-.44-.11-.85-.3-1.31-.38-3.51-.64-86.48-15.26-157.29,39.89a116.88,116.88,0,0,1-14.36,9.84c-.4-6-.2-14.21,0-20.36.64-25.95,1.35-55.35-21-67.87-22.15-12.4-50.62,2.62-73,17.1C554.4,419.49,461.77,429.5,460.84,429.6a17.51,17.51,0,0,0-2.83.57A36.29,36.29,0,0,0,390.1,448h0a36.28,36.28,0,0,0,67.9,17.8,18,18,0,0,0,6.54.56c4.12-.41,102.14-10.81,196.6-72,22.8-14.76,32.24-15.71,34.67-15.74,3.06,5.46,2.6,24.29,2.35,34.61-.57,23.68-1.17,48.16,18,57.82a28.64,28.64,0,0,0,13.09,3.08c14.44,0,29.51-9.9,42.92-20.35C829.56,409.1,899.4,421,900,421.08a18.37,18.37,0,0,0,8.07-.36,36.28,36.28,0,1,0,31.6-54.09ZM426.4,463.17A15.22,15.22,0,0,1,411.2,448h0a15.2,15.2,0,1,1,15.2,15.21Zm513.3-45a15.2,15.2,0,1,1,15.2-15.2A15.22,15.22,0,0,1,939.7,418.13Z" transform="translate(-390.1 -209.3)"/><path class="cls-1" d="M831,509.42H533.66a57.38,57.38,0,0,1-46.17-23.19l-25.28,19a89.94,89.94,0,0,0,71.45,35.81H831a89.51,89.51,0,0,0,89.4-89.41H888.72A57.83,57.83,0,0,1,831,509.42Z" transform="translate(-390.1 -209.3)"/></svg>